<?xml version="1.0" standalone="no"?>
<!DOCTYPE svg PUBLIC "-//W3C//DTD SVG 20010904//EN"
 "http://www.w3.org/TR/2001/REC-SVG-20010904/DTD/svg10.dtd">
<svg version="1.0" xmlns="http://www.w3.org/2000/svg"
 width="1024.000000pt" height="1024.000000pt" viewBox="0 0 1024.000000 1024.000000"
 preserveAspectRatio="xMidYMid meet">
<metadata>
Created by potrace 1.11, written by Peter Selinger 2001-2013
</metadata>
<g transform="translate(0.000000,1024.000000) scale(0.100000,-0.100000)"
fill="#000000" stroke="none">
<path d="M4858 10235 c-1 -1 -39 -5 -83 -9 -140 -11 -250 -22 -294 -31 -13 -2
-49 -7 -80 -11 -31 -3 -59 -8 -62 -10 -4 -2 -24 -6 -45 -9 -22 -4 -47 -8 -56
-11 -21 -6 -65 -15 -93 -19 -11 -1 -21 -4 -22 -5 -2 -1 -11 -3 -20 -4 -10 -1
-24 -5 -30 -9 -7 -5 -13 -6 -13 -4 0 3 -37 -6 -82 -19 -45 -12 -86 -20 -90
-18 -4 3 -8 0 -8 -6 0 -6 -6 -10 -12 -8 -25 4 -377 -120 -503 -177 -27 -13
-52 -23 -55 -22 -3 1 -18 -6 -35 -15 -16 -9 -93 -48 -170 -86 -183 -92 -229
-116 -235 -123 -3 -4 -21 -15 -40 -26 -19 -10 -55 -32 -80 -48 -95 -60 -216
-140 -230 -152 -8 -6 -64 -48 -125 -93 -60 -46 -118 -90 -127 -99 -9 -9 -23
-21 -30 -26 -161 -130 -481 -453 -585 -590 -25 -32 -88 -111 -93 -115 -4 -3
-22 -27 -40 -55 -19 -27 -42 -59 -52 -69 -10 -11 -18 -23 -18 -27 0 -4 -6 -14
-13 -21 -20 -21 -127 -187 -127 -197 0 -5 -4 -11 -8 -13 -8 -3 -88 -138 -134
-228 -29 -55 -35 -111 -15 -137 5 -7 6 -13 1 -13 -4 0 8 -17 28 -37 l36 -38
-33 -69 c-19 -37 -41 -87 -50 -110 -44 -111 -46 -114 -73 -107 -28 8 -102 -8
-102 -21 0 -4 -6 -8 -12 -8 -20 -1 -45 -42 -68 -111 -24 -71 -27 -82 -28 -89
0 -3 -6 -18 -12 -35 -7 -16 -19 -52 -27 -80 -25 -88 -55 -199 -59 -220 -4 -23
-14 -65 -18 -80 -4 -17 -25 -119 -30 -145 -2 -14 -7 -41 -10 -60 -24 -138 -26
-150 -30 -200 -3 -25 -5 -45 -6 -45 0 0 -3 -25 -6 -55 -3 -30 -7 -82 -11 -115
-7 -76 -7 -631 0 -705 3 -30 8 -82 12 -115 3 -33 8 -76 10 -95 3 -19 7 -53 10
-75 7 -58 12 -90 30 -185 9 -47 18 -94 20 -105 1 -11 8 -38 13 -60 6 -22 13
-51 16 -65 18 -94 135 -469 174 -559 9 -20 16 -38 16 -41 1 -5 10 -27 54 -130
8 -19 32 -72 53 -117 22 -44 39 -84 39 -87 0 -4 11 -24 25 -46 14 -22 22 -40
18 -40 -5 0 -3 -4 2 -8 6 -4 16 -18 23 -32 6 -14 27 -52 47 -85 19 -33 38 -68
41 -77 3 -10 10 -18 15 -18 5 0 9 -4 9 -10 0 -10 59 -111 70 -120 4 -3 10 -14
15 -25 10 -26 13 -825 2 -832 -4 -2 -4 -10 0 -16 4 -6 7 -63 8 -127 3 -190 45
-294 168 -412 45 -43 151 -105 194 -113 10 -2 18 -4 18 -5 0 -6 53 -12 129
-14 208 -6 394 114 478 309 14 33 28 68 30 78 2 14 15 9 73 -34 101 -75 352
-239 364 -239 6 0 11 -4 11 -10 0 -5 4 -10 10 -10 5 0 43 -20 84 -44 41 -24
84 -47 95 -51 18 -5 20 -14 18 -78 0 -40 2 -78 6 -84 4 -6 3 -14 -2 -18 -7 -4
-7 -15 -1 -30 5 -14 6 -25 2 -25 -4 0 -7 -13 -7 -30 0 -16 3 -30 6 -30 3 0 3
-20 -1 -45 -4 -24 -3 -42 2 -39 4 3 4 -5 -1 -18 -5 -15 -5 -31 0 -41 6 -9 6
-17 1 -17 -8 0 -7 -69 2 -77 3 -3 1 -15 -4 -27 -4 -13 -4 -29 1 -39 6 -9 6
-17 2 -17 -9 0 -9 -172 0 -187 4 -6 4 -13 0 -16 -7 -8 -10 -117 -3 -117 7 0 4
-70 -4 -77 -3 -3 -1 -14 5 -24 5 -11 6 -19 2 -19 -10 0 -10 -41 0 -57 4 -5 4
-13 0 -17 -8 -8 -11 -56 -3 -56 3 0 5 -15 4 -32 -1 -38 18 -127 32 -149 5 -8
9 -16 10 -19 11 -58 170 -240 196 -224 4 3 8 1 8 -4 0 -8 85 -51 113 -58 4 -1
8 -2 10 -4 19 -16 206 -19 261 -3 28 8 56 15 61 16 47 11 205 123 205 147 0 5
4 10 9 10 10 0 64 79 67 99 2 8 9 18 16 22 7 5 10 9 6 9 -4 0 -3 12 3 28 6 15
13 35 15 45 2 9 7 27 10 40 3 12 5 210 6 440 l0 418 27 -3 26 -3 1 -460 c1
-253 5 -473 8 -490 3 -16 7 -37 9 -46 5 -28 51 -129 59 -129 5 0 8 -6 8 -13 0
-21 112 -132 163 -161 108 -64 250 -89 364 -66 92 19 196 74 262 138 32 31 61
67 65 80 4 12 11 22 15 22 5 0 18 22 30 49 44 104 48 144 47 564 -1 218 1 397
4 398 3 1 48 2 100 4 85 3 200 10 300 20 101 10 158 16 185 21 17 3 42 7 58 9
15 3 42 7 60 10 17 3 55 10 82 15 28 5 64 12 80 15 17 2 84 18 150 35 66 16
125 30 130 30 7 0 11 -138 12 -423 2 -441 3 -481 23 -544 17 -54 61 -134 86
-159 12 -11 23 -25 25 -31 11 -30 130 -109 214 -143 54 -22 210 -31 285 -15
128 25 282 147 341 267 53 110 58 151 59 512 0 181 1 331 3 332 1 1 13 -3 27
-9 14 -5 34 -12 45 -14 11 -2 27 -6 35 -10 30 -13 182 -10 233 4 52 14 71 20
85 25 4 2 7 -150 8 -337 1 -293 3 -348 18 -400 29 -97 73 -172 141 -238 30
-29 128 -97 141 -97 3 0 20 -6 37 -14 56 -25 116 -34 195 -31 66 3 117 10 117
15 0 1 8 3 18 5 49 9 151 70 205 123 51 50 122 153 128 187 1 5 9 36 18 67 13
51 15 225 15 1388 l1 1331 63 97 c90 138 165 268 238 412 60 116 81 163 131
280 10 25 23 54 28 65 22 49 44 106 71 190 17 50 33 97 36 105 4 8 7 17 8 20
0 3 9 32 19 65 10 33 20 67 21 75 2 8 13 45 24 83 11 37 20 70 20 72 1 3 1 6
2 8 0 1 2 9 4 17 1 8 14 71 29 140 30 144 35 178 51 295 3 28 9 64 12 80 2 17
6 55 8 85 2 30 4 55 5 55 1 0 3 29 4 65 1 36 5 70 7 75 13 25 0 587 -16 700
-4 22 -6 47 -6 55 -1 18 -17 153 -24 195 -3 17 -10 55 -16 85 -6 30 -12 64
-14 75 -5 33 -16 96 -20 116 -2 11 -6 22 -8 27 -3 4 -8 23 -11 42 -3 19 -15
67 -25 105 -11 39 -26 96 -35 127 -8 31 -26 88 -40 127 -14 39 -22 71 -19 71
3 0 1 6 -4 13 -5 6 -20 41 -33 77 -13 36 -28 71 -33 78 -5 6 -7 12 -4 12 3 0
-5 26 -19 58 -14 31 -29 66 -33 77 -35 82 -176 361 -185 367 -6 4 -8 8 -4 8 4
0 -13 33 -37 74 -25 40 -45 79 -45 85 0 6 -3 11 -7 11 -5 0 -24 27 -42 60 -19
33 -39 60 -43 60 -4 0 -8 5 -8 11 0 10 -76 126 -91 139 -3 3 -20 26 -37 52
-18 25 -38 52 -45 60 -7 7 -24 29 -37 48 -13 19 -29 40 -35 46 -5 6 -26 30
-45 54 -133 165 -343 379 -529 540 -35 30 -70 61 -77 68 -7 6 -16 12 -20 12
-4 0 -12 6 -18 14 -6 8 -69 58 -141 110 -71 53 -134 99 -140 104 -5 4 -28 19
-50 32 -22 13 -42 27 -45 30 -8 10 -292 177 -335 197 -22 10 -42 21 -45 24 -8
8 -99 49 -110 49 -5 0 -10 4 -10 9 0 7 -25 18 -43 19 -1 0 -29 14 -62 30 -33
16 -91 41 -130 57 -38 15 -83 33 -100 41 -16 7 -42 16 -58 19 -15 4 -30 11
-33 16 -3 5 -10 7 -15 4 -5 -4 -9 -1 -9 5 0 6 -5 8 -10 5 -6 -4 -16 -3 -23 3
-7 5 -34 15 -62 22 -27 7 -54 16 -60 19 -5 3 -14 6 -20 7 -5 1 -37 10 -70 19
-77 22 -321 82 -360 89 -194 34 -251 42 -271 41 -13 0 -24 2 -24 6 0 3 -6 6
-12 6 -21 0 -181 15 -213 19 -36 5 -622 14 -627 9z"/>
</g>
</svg>
