<svg xmlns="http://www.w3.org/2000/svg" viewBox="0 0 1594 1377"><g fill="none" fill-rule="evenodd"><g transform="translate(2 519)" stroke="#423C52" stroke-linecap="round" stroke-width="5"><circle cx="331.78" cy="556.58" r="298.91"/><path d="M154.6 840.55C62.7 787.39.87 688.03.87 574.23"/><circle cx="1260.84" cy="556.58" r="298.91"/><path d="M1424.6 269.26c106.76 57.08 174.66 174.13 163 302.28M1260.84 556.58L1086.52 30A22.28 22.28 0 011107.67.72h162.88a80.17 80.17 0 0180.17 80.18c-.006 44.278-35.902 80.17-80.18 80.17h-28.67a28.06 28.06 0 01-23.3-12.39"/><circle fill="#FFF" fill-rule="nonzero" cx="1260.52" cy="557.36" r="12.43"/><path d="M536.4 225.62L331.05 556.53H861.3l160.72-259c27.747-44.71 76.63-71.906 129.25-71.91H536.4zM1101.53 72.68C1129.275 27.967 1178.159.77 1230.78.77M636.3 670.84h152.34v22.57H636.3z"/><rect x="437.85" y="136.04" width="195.95" height="33" rx="15.06"/><path d="M535.82 225.62v-56.58"/><circle fill="#FFF" fill-rule="nonzero" cx="331.05" cy="556.53" r="12.43"/></g><path d="M786.25 1075.53H616a37.77 37.77 0 01-34.14-53.94L755.45 655H518.8c-33.647.024-64.34-19.205-79-49.49L632.64 458.7h274.73c97.89 0 160 104.93 112.85 190.73l-233.97 426.1z" fill="#423C52" fill-rule="nonzero"/><path d="M786.25 1075.53c-5.5 13.44-22.53 69.91 7.69 82.72 28.6 12.12 25.85 28.59 25.85 28.59H632.26a27.08 27.08 0 01-25.59-35.91l26-75.35 153.58-.05z" fill="#907B00" fill-rule="nonzero"/><path d="M748.69 1096.58h33.7a7 7 0 010 14h-5.07M748.69 1110.58h33.7a7 7 0 010 14h-5.07" stroke="#FFF" stroke-width="4"/><path d="M819.79 1186.85H632.26a27.08 27.08 0 01-25.6-35.92l1.79-5.19c1.977 13.282 13.382 23.113 26.81 23.11h175.91c10.06 9.36 8.62 18 8.62 18z" fill="#FFF" fill-rule="nonzero"/><g><path d="M1276.67 542.48s61.75 5.5 70.91-26.4c9.16-31.9-3.07-77-21-88-3.82-2.34-74.22-4-74.22-4L1205.88 527c57.2.67 79.08-5.6 79.08-5.6s-13.57 2.75-8.29 21.08z" fill="#FFDB00" fill-rule="nonzero"/><path d="M1322.59 537.46a26.87 26.87 0 007.59-12.26c3.42-11.91 3.86-24.65 2.13-37.78M1205.88 527l79.47-6.58c9.166-.755 16.22-8.413 16.22-17.61v-12.04" stroke="#423C52" stroke-width="5" stroke-linecap="round" stroke-linejoin="round"/></g><g><path fill="#FFDB00" fill-rule="nonzero" d="M921.17 118.27l-15.33 41.03-25.67-.42-101.11-1.51 69.66-91.53z"/><path d="M880.47 65.84l7.67 45.48c2.13 12.7 13.123 22.002 26 22h38.56a15.39 15.39 0 0015.3-16.81l-1.76-19.14h5.88a5.62 5.62 0 005.41-7.14L965.17 46l-84.7 19.84z" fill="#FFDB00" fill-rule="nonzero"/><path d="M865.93 65.84h21.32v39.23h-21.32A17.91 17.91 0 01848 87.16v-3.41c0-9.891 8.019-17.91 17.91-17.91h.02z" fill="#FFDB00" fill-rule="nonzero"/><path d="M849.36 87.11c0 10.84 12.1 20.45 22.93 20.45h21.85M877.62 88.47c0-6.627-5.373-12-12-12" stroke="#423C52" stroke-width="5" stroke-linecap="round"/><g transform="translate(924 60)"><ellipse fill="#423C52" fill-rule="nonzero" cx="15.87" cy="20.18" rx="3.3" ry="4.44"/><path d="M.47 5.84s11-4.77 18.7-5.13" stroke="#423C52" stroke-width="5" stroke-linecap="round"/></g><g stroke="#423C52" stroke-linecap="round" stroke-width="5"><path d="M841.26 72.76l1.48-6c8.464-34.601 38.298-59.781 73.83-62.31l18.37-1.3c13.457-1.219 25.517 8.299 27.46 21.67l2.77 19.06-123.91 28.88z" fill="#FFF" fill-rule="nonzero" stroke-linejoin="round"/><path d="M841.26 72.76l173.04-39.73"/></g><path d="M905.84 59.71c-10.5 23.92 1.5 38.92 5.12 41.64 10.32 7.73 46.77-1.63 55.31-4 0 0 7.31 49.78-1 51.07-15.33 2.38-69.67-14.48-77-28.41-2.44-4.6.74-20.84.26-32.12-.35-8.57-1.28-22.07-8.06-22.07l25.37-6.11z" fill="#423C52" fill-rule="nonzero"/></g><g><path d="M905.84 159.3L733 78.76c-16.018-7.462-35.083-1.434-43.9 13.88l-46.6 81c-9.44 18.73 7 40.06 27.52 35.71l235.82-50.05z" fill="#FE552F" fill-rule="nonzero"/><path d="M781 157.37h104.23c41.807.053 80.085 23.448 99.2 60.63 34.76 67.36 113 169.75 273.69 192.91l-52.24 117s-172.07 70.59-364.56-69.1h-92.24a345.06 345.06 0 00-209 70.5l-100.23 76.31s-66.09-138.25 78.8-291.76c50.7-53.72 92.71-89.19 125.34-112.52A235.51 235.51 0 01781 157.37z" fill="#FE552F" fill-rule="nonzero"/><path d="M851.78 200.81c45.52 88.2 167 242.29 377.31 272.61M836.9 205.65c43.81 90.29 172.95 250.23 385.64 280.88" stroke="#FFF" stroke-width="5" stroke-linecap="round"/><path d="M644 200.23a235.5 235.5 0 01137-43.89h122.89M843 462.06c-30-20.67-77.08-88.31-77.08-88.31" stroke="#423C52" stroke-width="5" stroke-linecap="round"/><path d="M1256.05 412.93l-51.21 115.94s-172.07 70.6-364.56-69.09" stroke="#423C52" stroke-width="5" stroke-linecap="round"/></g></g></svg>